{"title":"This Week - S13E15 - 2015.01.15 - 468p x264","uid":11709730,"size":506021288,"categoryP":"video","categoryS":"tv_shows","magnet":"?xt=urn:btih:af3b55aa5f0922e4c71274941e38bb2b81c9a2af&amp;dn=This+Week+-+S13E15+-+2015.01.15+-+468p+x264&amp;tr=udp%3A%2F%2Ftracker.openbittorrent.com%3A80&amp;tr=udp%3A%2F%2Fopen.demonii.com%3A1337&amp;tr=udp%3A%2F%2Ftracker.coppersurfer.tk%3A6969&amp;tr=udp%3A%2F%2Fexodus.desync.com%3A6969","seeders":0,"leechers":1,"uploader":"rugbybill","files":3,"time":1424278523,"description":"POLITICAL: This Week\nOn: BBC 1 HD    \nDate: Thursday 15th January 2015 \nTime: 23:35 to 00:20 \n\nAndrew Neil looks at the arguments over printing cartoons of the Prophet Muhammad with comic Shazia Mirza and journalist Nabila Ramdani, who are both Muslim but hold opposing views about the issue. There is a review of the political week with a film from Adam Boulton of Sky News, before the issues are debated by Michael Portillo, Diane Abbott and Miranda Green. And F1 presenter Suzi Perry is also be on the sofa. Crack open the Blue Nun and prepare to watch public service broadcasting at its best.\n\nCredits\nPresenter\tAndrew Neil\nPanellist\tMichael Portillo\nPanellist\tDiane Abbott\nPanellist\tMiranda Green\nInterviewed Guest\tNabila Ramdani\nInterviewed Guest\tShazia Mirza\nInterviewed Guest\tSuzi Perry\nReporter\tAdam Boulton\nDirector\tClaire Bellis\nEditor\tVicky Flind\nAssistant Editor\tRichard Garvin\nProduction Manager\tPaula Prynn\nProducer\tAndrew Bradley\nProducer\tJames Franklin\nProducer\tArryn Moy\nExecutive Producer\tRobbie Gibb\nExecutive Producer\tSamir Shah\nProduction Company\tJuniper TV\n\n\nGeneral\nComplete name                            : 2015.01.15.This.Week.webrip.468p.x264.mp4\nFormat                                   : MPEG-4\nFormat profile                           : Base Media\nCodec ID                                 : isom\nFile size                                : 482 MiB\nDuration                                 : 44mn 49s\nOverall bit rate mode                    : Constant\nOverall bit rate                         : 1 503 Kbps\n\nVideo\nID                                       : 1\nFormat                                   : AVC\nFormat/Info                              : Advanced Video Codec\nFormat profile                           : &lt;a class=&quot;__cf_email__&quot; href=&quot;/cdn-cgi/l/email-protection&quot; data-cfemail=&quot;98d5f9f1f6d8d4abb6a9&quot;&gt;[email&amp;#160;protected]&lt;/a&gt;&lt;script cf-hash='f9e31' type=&quot;text/javascript&quot;&gt;\n/* &lt;![CDATA[ */!function(){try{var t=&quot;currentScript&quot;in document?document.currentScript:function(){for(var t=document.getElementsByTagName(&quot;script&quot;),e=t.length;e--;)if(t[e].getAttribute(&quot;cf-hash&quot;))return t[e]}();if(t&amp;&amp;t.previousSibling){var e,r,n,i,c=t.previousSibling,a=c.getAttribute(&quot;data-cfemail&quot;);if(a){for(e=&quot;&quot;,r=parseInt(a.substr(0,2),16),n=2;a.length-n;n+=2)i=parseInt(a.substr(n,2),16)^r,e+=String.fromCharCode(i);e=document.createTextNode(e),c.parentNode.replaceChild(e,c)}}}catch(u){}}();/* ]]&gt; */&lt;/script&gt;\nFormat settings, CABAC                   : Yes\nFormat settings, ReFrames                : 2 frames\nCodec ID                                 : avc1\nCodec ID/Info                            : Advanced Video Coding\nDuration                                 : 44mn 49s\nBit rate mode                            : Constant\nBit rate                                 : 1 404 Kbps\nWidth                                    : 832 pixels\nHeight                                   : 468 pixels\nDisplay aspect ratio                     : 16:9\nFrame rate mode                          : Constant\nFrame rate                               : 25.000 fps\nColor space                              : YUV\nChroma subsampling                       : 4:2:0\nBit depth                                : 8 bits\nScan type                                : Progressive\nBits/(Pixel*Frame)                       : 0.144\nStream size                              : 450 MiB (93%)\n\nAudio\nID                                       : 2\nFormat                                   : AAC\nFormat/Info                              : Advanced Audio Codec\nFormat profile                           : LC\nCodec ID                                 : 40\nDuration                                 : 44mn 49s\nBit rate mode                            : Constant\nBit rate                                 : 93.5 Kbps\nChannel(s)                               : 2 channels\nChannel positions                        : Front: L R\nSampling rate                            : 48.0 KHz\nCompression mode                         : Lossy\nStream size                              : 30.0 MiB (6%)","torrent":{"xt":"urn:btih:af3b55aa5f0922e4c71274941e38bb2b81c9a2af","amp;dn":"This+Week+-+S13E15+-+2015.01.15+-+468p+x264","amp;tr":["udp%3A%2F%2Ftracker.openbittorrent.com%3A80","udp%3A%2F%2Fopen.demonii.com%3A1337","udp%3A%2F%2Ftracker.coppersurfer.tk%3A6969","udp%3A%2F%2Fexodus.desync.com%3A6969"],"infoHash":"af3b55aa5f0922e4c71274941e38bb2b81c9a2af","infoHashBuffer":{"type":"Buffer","data":[175,59,85,170,95,9,34,228,199,18,116,148,30,56,187,43,129,201,162,175]},"announce":[],"urlList":[]}}